<?xml version="1.0" encoding="iso-8859-1"?>
<!-- Uploaded to: SVG Repo, www.svgrepo.com, Generator: SVG Repo Mixer Tools -->
<!DOCTYPE svg PUBLIC "-//W3C//DTD SVG 1.1//EN" "http://www.w3.org/Graphics/SVG/1.1/DTD/svg11.dtd">
<svg fill="#ffffff" height="800px" width="800px" version="1.1" id="Capa_1" xmlns="http://www.w3.org/2000/svg" xmlns:xlink="http://www.w3.org/1999/xlink" 
	 viewBox="0 0 295 295" xml:space="preserve">
<g>
	<path d="M49,29.639H26.962C12.071,29.639,0,41.71,0,56.601v100.076c0,14.891,12.071,26.962,26.962,26.962H49V29.639z"/>
	<path d="M275,44.851c-8.154,0-15.156,4.887-18.27,11.886c-8.78-16.142-25.889-27.098-45.557-27.098H89v154h84.283l-23.205,40.008
		c-0.612,1.058-1.752,1.714-2.974,1.714H57.379c-11.046,0-20,8.954-20,20s8.954,20,20,20h89.726
		c15.434,0,29.831-8.293,37.575-21.645l35.284-60.835c15.895-2.717,29.325-12.659,36.767-26.341
		c3.114,6.999,10.115,11.886,18.27,11.886c11.046,0,20-8.954,20-20V64.851C295,53.805,286.046,44.851,275,44.851z"/>
</g>
</svg>